<?xml version="1.0" standalone="no"?>
<!DOCTYPE svg PUBLIC "-//W3C//DTD SVG 20010904//EN"
 "http://www.w3.org/TR/2001/REC-SVG-20010904/DTD/svg10.dtd">
<svg version="1.0" xmlns="http://www.w3.org/2000/svg"
 width="261.000000pt" height="84.000000pt" viewBox="0 0 261.000000 84.000000"
 preserveAspectRatio="xMidYMid meet">

<g transform="translate(0.000000,84.000000) scale(0.100000,-0.100000)"
fill="#000000" stroke="none">
<path d="M577 816 c-4 -9 -17 -12 -39 -9 -46 5 -365 -16 -409 -27 -32 -9 -36
-14 -36 -42 0 -18 7 -38 15 -44 11 -8 12 -13 4 -18 -7 -4 -12 -4 -12 0 0 3 -7
1 -15 -6 -8 -7 -12 -16 -9 -21 3 -5 -10 -9 -29 -9 -48 0 -52 -9 -17 -45 30
-31 30 -31 11 -52 -11 -12 -21 -34 -23 -50 -3 -25 0 -28 29 -28 17 0 35 -3 39
-8 13 -13 11 -76 -3 -81 -7 -3 -13 -19 -13 -36 0 -27 3 -30 31 -30 27 0 30 -2
19 -15 -7 -8 -21 -15 -31 -15 -10 0 -20 -4 -24 -10 -8 -14 16 -48 38 -54 13
-3 18 -10 13 -21 -20 -53 -18 -62 12 -68 20 -4 29 -12 28 -23 -2 -25 45 -34
132 -28 53 5 73 3 68 -5 -4 -6 -2 -11 3 -11 6 0 11 -5 11 -10 0 -6 -3 -9 -7
-9 -5 1 -16 1 -27 0 -15 -1 -16 -4 -6 -16 15 -18 86 -12 110 10 9 8 27 14 41
14 21 -1 21 -2 -6 -9 -20 -5 -9 -7 35 -4 36 2 67 4 70 5 3 1 15 0 27 0 11 -1
23 2 26 6 3 5 63 10 132 12 105 2 129 0 138 -13 12 -16 57 -12 57 5 0 15 267
11 273 -3 4 -10 6 -10 6 0 1 15 77 17 86 1 4 -6 13 -8 21 -5 7 3 16 1 19 -4
10 -16 35 -12 35 5 0 17 64 19 360 14 182 -3 197 -4 230 -12 41 -10 177 -16
155 -7 -12 5 -14 9 -6 9 8 1 22 -6 31 -14 23 -21 95 -28 109 -11 9 11 8 15 -5
20 -9 3 -20 4 -25 0 -5 -3 -9 0 -9 7 0 20 33 38 69 39 26 0 32 3 27 15 -5 13
1 15 31 13 22 -2 38 2 40 9 3 9 -6 13 -26 13 -36 0 -34 21 5 39 33 15 34 14
34 -9 0 -15 7 -20 25 -20 14 0 25 5 25 11 0 6 -10 8 -22 5 -13 -3 -17 -3 -10
0 6 3 10 9 7 13 -2 4 16 18 40 30 38 19 65 46 65 64 0 13 -41 48 -49 42 -21
-12 -11 -35 14 -35 14 0 25 -3 25 -7 -1 -28 -76 -73 -121 -73 -28 0 -46 -14
-87 -64 -6 -8 -12 -20 -12 -26 0 -5 -19 -10 -43 -10 -24 0 -52 -7 -63 -15 -13
-10 -45 -14 -104 -15 -55 0 -91 -5 -98 -12 -9 -9 -15 -10 -20 -2 -4 7 -67 12
-177 14 -93 1 -179 2 -190 3 -87 3 -245 -5 -240 -12 3 -5 1 -12 -5 -16 -6 -3
-13 1 -16 9 -5 13 -37 15 -210 16 -130 0 -204 -4 -204 -10 0 -5 -10 -10 -22
-9 -22 0 -22 1 -3 9 13 6 -39 9 -140 8 -103 -1 -163 -5 -167 -12 -5 -8 -11 -7
-20 2 -6 6 -19 12 -28 11 -10 0 -11 -2 -2 -6 22 -9 3 -20 -27 -15 -17 2 -28 8
-25 13 3 5 -20 9 -52 9 -49 0 -55 -2 -44 -15 11 -13 8 -15 -14 -15 -15 0 -25
4 -21 10 3 5 -2 18 -12 30 -15 17 -29 20 -88 20 -52 0 -66 -3 -55 -11 11 -8 5
-9 -25 -4 -48 8 -51 10 -36 29 11 12 7 16 -23 22 -41 7 -41 9 -22 46 14 26 13
28 -20 47 -44 26 -43 41 4 41 27 0 33 3 22 10 -12 8 -11 10 6 10 12 0 24 7 28
15 4 12 -4 15 -39 15 -41 0 -45 2 -45 25 0 16 6 25 15 25 11 0 14 7 9 24 -3
14 -1 27 6 31 8 5 4 15 -11 31 -18 19 -29 23 -51 19 -30 -7 -40 11 -13 21 8 4
15 17 15 30 0 16 8 27 22 33 l23 8 -23 7 c-13 5 -21 10 -18 14 4 3 -6 14 -21
24 l-28 18 43 0 c35 0 42 3 42 20 0 12 5 17 14 14 19 -7 28 22 11 36 -24 20
-12 63 20 72 32 8 368 29 405 24 14 -1 35 3 47 11 15 9 24 9 28 2 4 -6 13 -8
21 -5 8 3 14 2 14 -2 0 -16 392 -3 409 13 2 3 9 -2 15 -9 8 -11 52 -16 166
-22 219 -11 274 -12 370 -12 184 1 212 0 256 -12 42 -12 159 -10 284 5 48 6
90 -4 90 -20 0 -8 10 -15 23 -17 12 -2 21 -9 19 -16 -1 -8 11 -12 33 -12 42 0
51 2 47 13 -1 4 8 7 20 6 13 0 17 -3 11 -6 -7 -2 -13 -8 -13 -13 0 -10 43 0
51 12 3 5 24 0 45 -11 21 -11 53 -22 69 -25 21 -4 17 -1 -12 10 -24 9 -43 20
-43 25 0 5 -9 9 -20 9 -11 0 -20 5 -20 11 0 5 -5 7 -12 3 -7 -5 -29 -7 -50 -5
-22 1 -38 -2 -38 -8 0 -6 -12 -11 -26 -11 -21 0 -25 4 -21 20 7 28 -18 47 -32
23 -9 -17 -11 -17 -24 2 -17 22 -52 24 -224 10 -110 -9 -221 7 -231 33 -3 10
-7 11 -12 2 -5 -8 -51 -14 -129 -17 -116 -5 -122 -5 -141 17 -21 24 -60 20
-60 -7 0 -21 -70 -10 -87 14 -12 16 -13 16 -13 -1 0 -15 -5 -17 -27 -12 -16 4
-73 6 -127 6 -77 0 -104 4 -117 16 -15 13 -24 14 -50 5 -17 -6 -43 -8 -58 -5
-16 3 -21 2 -14 -3 7 -5 -32 -8 -94 -6 -71 2 -110 8 -115 16 -6 9 -8 9 -8 0 0
-18 -67 -28 -85 -13 -8 6 -19 9 -24 6 -5 -4 -12 -2 -16 4 -9 15 -32 12 -38 -4z
m910 -22 c-3 -3 -12 -4 -19 -1 -8 3 -5 6 6 6 11 1 17 -2 13 -5z m910 -670 c-3
-3 -12 -4 -19 -1 -8 3 -5 6 6 6 11 1 17 -2 13 -5z m-2120 -40 c-3 -3 -12 -4
-19 -1 -8 3 -5 6 6 6 11 1 17 -2 13 -5z m1947 -29 c3 -10 -1 -15 -14 -15 -23
0 -35 16 -18 23 21 9 26 8 32 -8z m-136 -2 c-10 -2 -28 -2 -40 0 -13 2 -5 4
17 4 22 1 32 -1 23 -4z m-1714 -25 c-3 -4 -12 -8 -20 -8 -8 0 -13 4 -10 8 3 5
12 9 20 9 8 0 13 -4 10 -9z m1896 2 c0 -5 -7 -10 -16 -10 -8 0 -12 5 -9 10 3
6 10 10 16 10 5 0 9 -4 9 -10z"/>
<path d="M2420 760 c8 -5 20 -10 25 -10 6 0 3 5 -5 10 -8 5 -19 10 -25 10 -5
0 -3 -5 5 -10z"/>
<path d="M2460 740 c0 -5 7 -7 15 -4 8 4 15 8 15 10 0 2 -7 4 -15 4 -8 0 -15
-4 -15 -10z"/>
<path d="M40 660 c0 -5 5 -10 10 -10 6 0 10 5 10 10 0 6 -4 10 -10 10 -5 0
-10 -4 -10 -10z"/>
<path d="M2520 654 c0 -9 8 -14 18 -13 9 1 28 1 42 0 l25 -1 -30 -20 c-16 -11
-26 -20 -21 -20 6 0 2 -6 -8 -13 -17 -12 -17 -14 -2 -20 9 -4 16 -17 16 -31 0
-13 7 -26 15 -30 27 -10 17 -29 -12 -22 -21 6 -32 1 -53 -21 -14 -15 -35 -33
-46 -40 -16 -10 -17 -13 -4 -22 8 -6 20 -13 25 -15 6 -3 2 -11 -7 -19 -16 -12
-14 -15 21 -30 42 -19 51 -21 51 -9 0 4 -15 13 -32 21 l-33 12 25 10 c25 10
25 10 -15 29 -22 10 -34 19 -27 19 7 1 25 13 40 28 17 18 38 28 57 28 27 0 30
3 27 30 -2 16 -7 32 -11 35 -12 8 -21 40 -11 40 5 0 7 6 4 14 -3 8 4 19 16 26
26 14 16 29 -23 32 -15 1 -27 6 -27 10 0 4 -4 8 -10 8 -5 0 -10 -7 -10 -16z"/>
<path d="M168 273 c6 -2 18 -2 25 0 6 3 1 5 -13 5 -14 0 -19 -2 -12 -5z"/>
<path d="M125 40 c17 -7 17 -9 3 -9 -10 -1 -18 -5 -18 -11 0 -11 11 -13 34 -4
21 8 8 34 -18 33 -20 0 -20 -1 -1 -9z"/>
<path d="M2457 36 c-5 -13 12 -26 34 -26 17 0 9 20 -8 21 -15 0 -15 2 2 9 19
8 19 9 -1 9 -12 1 -24 -5 -27 -13z"/>
</g>
</svg>
